<?xml version="1.0" encoding="UTF-8" standalone="no"?>
<!DOCTYPE svg PUBLIC "-//W3C//DTD SVG 1.1//EN"
 "http://www.w3.org/Graphics/SVG/1.1/DTD/svg11.dtd">
<!-- Generated by graphviz version 5.0.0 (20220707.1540)
 -->
<!-- Title: dependencies Pages: 1 -->
<svg width="1641pt" height="247pt"
 viewBox="0.00 0.00 1641.00 246.80" xmlns="http://www.w3.org/2000/svg" xmlns:xlink="http://www.w3.org/1999/xlink">
<g id="graph0" class="graph" transform="scale(1 1) rotate(0) translate(4 242.8)">
<title>dependencies</title>
<polygon fill="white" stroke="transparent" points="-4,4 -4,-242.8 1637,-242.8 1637,4 -4,4"/>
<text text-anchor="middle" x="816.5" y="-8.2" font-family="sans-serif" font-size="14.00">dependencies</text>
<g id="clust1" class="cluster">
<title>cluster_AppModule</title>
<polygon fill="none" stroke="black" stroke-dasharray="1,5" points="8,-32.8 8,-230.8 1625,-230.8 1625,-32.8 8,-32.8"/>
</g>
<g id="clust2" class="cluster">
<title>cluster_AppModule_declarations</title>
<polygon fill="none" stroke="black" points="168,-40.8 168,-92.8 1617,-92.8 1617,-40.8 168,-40.8"/>
</g>
<g id="clust13" class="cluster">
<title>cluster_AppModule_imports</title>
<polygon fill="none" stroke="black" points="16,-40.8 16,-92.8 160,-92.8 160,-40.8 16,-40.8"/>
</g>
<g id="clust15" class="cluster">
<title>cluster_AppModule_bootstrap</title>
<polygon fill="none" stroke="black" points="767,-170.8 767,-222.8 891,-222.8 891,-170.8 767,-170.8"/>
</g>
<!-- AppComponent -->
<g id="node1" class="node">
<title>AppComponent</title>
<polygon fill="#ffffb3" stroke="black" points="1608.94,-84.8 1503.06,-84.8 1503.06,-48.8 1608.94,-48.8 1608.94,-84.8"/>
<text text-anchor="middle" x="1556" y="-62.6" font-family="Times,serif" font-size="14.00">AppComponent</text>
</g>
<!-- AppModule -->
<g id="node11" class="node">
<title>AppModule</title>
<polygon fill="#8dd3c7" stroke="black" points="870.66,-149.8 867.66,-153.8 846.66,-153.8 843.66,-149.8 787.34,-149.8 787.34,-113.8 870.66,-113.8 870.66,-149.8"/>
<text text-anchor="middle" x="829" y="-127.6" font-family="Times,serif" font-size="14.00">AppModule</text>
</g>
<!-- AppComponent&#45;&gt;AppModule -->
<g id="edge1" class="edge">
<title>AppComponent&#45;&gt;AppModule</title>
<path fill="none" stroke="black" d="M1556,-85.05C1556,-107.82 1556,-143.8 1556,-143.8 1556,-143.8 880.7,-143.8 880.7,-143.8"/>
<polygon fill="black" stroke="black" points="880.7,-140.3 870.7,-143.8 880.7,-147.3 880.7,-140.3"/>
</g>
<!-- AuthComponent -->
<g id="node2" class="node">
<title>AuthComponent</title>
<polygon fill="#ffffb3" stroke="black" points="1485.83,-84.8 1376.17,-84.8 1376.17,-48.8 1485.83,-48.8 1485.83,-84.8"/>
<text text-anchor="middle" x="1431" y="-62.6" font-family="Times,serif" font-size="14.00">AuthComponent</text>
</g>
<!-- AuthComponent&#45;&gt;AppModule -->
<g id="edge2" class="edge">
<title>AuthComponent&#45;&gt;AppModule</title>
<path fill="none" stroke="black" d="M1431,-85.08C1431,-106.12 1431,-137.8 1431,-137.8 1431,-137.8 880.85,-137.8 880.85,-137.8"/>
<polygon fill="black" stroke="black" points="880.85,-134.3 870.85,-137.8 880.85,-141.3 880.85,-134.3"/>
</g>
<!-- BookFormComponent -->
<g id="node3" class="node">
<title>BookFormComponent</title>
<polygon fill="#ffffb3" stroke="black" points="1358.01,-84.8 1215.99,-84.8 1215.99,-48.8 1358.01,-48.8 1358.01,-84.8"/>
<text text-anchor="middle" x="1287" y="-62.6" font-family="Times,serif" font-size="14.00">BookFormComponent</text>
</g>
<!-- BookFormComponent&#45;&gt;AppModule -->
<g id="edge3" class="edge">
<title>BookFormComponent&#45;&gt;AppModule</title>
<path fill="none" stroke="black" d="M1287,-84.91C1287,-104.14 1287,-131.8 1287,-131.8 1287,-131.8 880.86,-131.8 880.86,-131.8"/>
<polygon fill="black" stroke="black" points="880.86,-128.3 870.86,-131.8 880.86,-135.3 880.86,-128.3"/>
</g>
<!-- BookInfoComponent -->
<g id="node4" class="node">
<title>BookInfoComponent</title>
<polygon fill="#ffffb3" stroke="black" points="1197.49,-84.8 1062.51,-84.8 1062.51,-48.8 1197.49,-48.8 1197.49,-84.8"/>
<text text-anchor="middle" x="1130" y="-62.6" font-family="Times,serif" font-size="14.00">BookInfoComponent</text>
</g>
<!-- BookInfoComponent&#45;&gt;AppModule -->
<g id="edge4" class="edge">
<title>BookInfoComponent&#45;&gt;AppModule</title>
<path fill="none" stroke="black" d="M1130,-84.82C1130,-102.17 1130,-125.8 1130,-125.8 1130,-125.8 880.85,-125.8 880.85,-125.8"/>
<polygon fill="black" stroke="black" points="880.85,-122.3 870.85,-125.8 880.85,-129.3 880.85,-122.3"/>
</g>
<!-- BooksComponent -->
<g id="node5" class="node">
<title>BooksComponent</title>
<polygon fill="#ffffb3" stroke="black" points="1044.62,-84.8 927.38,-84.8 927.38,-48.8 1044.62,-48.8 1044.62,-84.8"/>
<text text-anchor="middle" x="986" y="-62.6" font-family="Times,serif" font-size="14.00">BooksComponent</text>
</g>
<!-- BooksComponent&#45;&gt;AppModule -->
<g id="edge5" class="edge">
<title>BooksComponent&#45;&gt;AppModule</title>
<path fill="none" stroke="black" d="M986,-85.04C986,-100.37 986,-119.8 986,-119.8 986,-119.8 881.07,-119.8 881.07,-119.8"/>
<polygon fill="black" stroke="black" points="881.07,-116.3 871.07,-119.8 881.07,-123.3 881.07,-116.3"/>
</g>
<!-- EditorialFormComponent -->
<g id="node6" class="node">
<title>EditorialFormComponent</title>
<polygon fill="#ffffb3" stroke="black" points="909.16,-84.8 748.84,-84.8 748.84,-48.8 909.16,-48.8 909.16,-84.8"/>
<text text-anchor="middle" x="829" y="-62.6" font-family="Times,serif" font-size="14.00">EditorialFormComponent</text>
</g>
<!-- EditorialFormComponent&#45;&gt;AppModule -->
<g id="edge6" class="edge">
<title>EditorialFormComponent&#45;&gt;AppModule</title>
<path fill="none" stroke="black" d="M829,-84.91C829,-84.91 829,-103.79 829,-103.79"/>
<polygon fill="black" stroke="black" points="825.5,-103.79 829,-113.79 832.5,-103.79 825.5,-103.79"/>
</g>
<!-- EditorialsComponent -->
<g id="node7" class="node">
<title>EditorialsComponent</title>
<polygon fill="#ffffb3" stroke="black" points="730.77,-84.8 595.23,-84.8 595.23,-48.8 730.77,-48.8 730.77,-84.8"/>
<text text-anchor="middle" x="663" y="-62.6" font-family="Times,serif" font-size="14.00">EditorialsComponent</text>
</g>
<!-- EditorialsComponent&#45;&gt;AppModule -->
<g id="edge7" class="edge">
<title>EditorialsComponent&#45;&gt;AppModule</title>
<path fill="none" stroke="black" d="M663,-85.04C663,-100.37 663,-119.8 663,-119.8 663,-119.8 777.11,-119.8 777.11,-119.8"/>
<polygon fill="black" stroke="black" points="777.11,-123.3 787.11,-119.8 777.11,-116.3 777.11,-123.3"/>
</g>
<!-- NavBarComponent -->
<g id="node8" class="node">
<title>NavBarComponent</title>
<polygon fill="#ffffb3" stroke="black" points="577.37,-84.8 452.63,-84.8 452.63,-48.8 577.37,-48.8 577.37,-84.8"/>
<text text-anchor="middle" x="515" y="-62.6" font-family="Times,serif" font-size="14.00">NavBarComponent</text>
</g>
<!-- NavBarComponent&#45;&gt;AppModule -->
<g id="edge8" class="edge">
<title>NavBarComponent&#45;&gt;AppModule</title>
<path fill="none" stroke="black" d="M515,-84.82C515,-102.17 515,-125.8 515,-125.8 515,-125.8 777.3,-125.8 777.3,-125.8"/>
<polygon fill="black" stroke="black" points="777.3,-129.3 787.3,-125.8 777.3,-122.3 777.3,-129.3"/>
</g>
<!-- StaffComponent -->
<g id="node9" class="node">
<title>StaffComponent</title>
<polygon fill="#ffffb3" stroke="black" points="434.05,-84.8 325.95,-84.8 325.95,-48.8 434.05,-48.8 434.05,-84.8"/>
<text text-anchor="middle" x="380" y="-62.6" font-family="Times,serif" font-size="14.00">StaffComponent</text>
</g>
<!-- StaffComponent&#45;&gt;AppModule -->
<g id="edge9" class="edge">
<title>StaffComponent&#45;&gt;AppModule</title>
<path fill="none" stroke="black" d="M380,-84.91C380,-104.14 380,-131.8 380,-131.8 380,-131.8 777.16,-131.8 777.16,-131.8"/>
<polygon fill="black" stroke="black" points="777.16,-135.3 787.16,-131.8 777.16,-128.3 777.16,-135.3"/>
</g>
<!-- StaffInfoComponent -->
<g id="node10" class="node">
<title>StaffInfoComponent</title>
<polygon fill="#ffffb3" stroke="black" points="307.87,-84.8 176.13,-84.8 176.13,-48.8 307.87,-48.8 307.87,-84.8"/>
<text text-anchor="middle" x="242" y="-62.6" font-family="Times,serif" font-size="14.00">StaffInfoComponent</text>
</g>
<!-- StaffInfoComponent&#45;&gt;AppModule -->
<g id="edge10" class="edge">
<title>StaffInfoComponent&#45;&gt;AppModule</title>
<path fill="none" stroke="black" d="M242,-85.08C242,-106.12 242,-137.8 242,-137.8 242,-137.8 777.25,-137.8 777.25,-137.8"/>
<polygon fill="black" stroke="black" points="777.26,-141.3 787.25,-137.8 777.25,-134.3 777.26,-141.3"/>
</g>
<!-- AppComponent  -->
<g id="node13" class="node">
<title>AppComponent </title>
<polygon fill="#80b1d3" stroke="black" points="883.44,-214.8 774.56,-214.8 774.56,-178.8 883.44,-178.8 883.44,-214.8"/>
<text text-anchor="middle" x="829" y="-192.6" font-family="Times,serif" font-size="14.00">AppComponent </text>
</g>
<!-- AppModule&#45;&gt;AppComponent  -->
<g id="edge12" class="edge">
<title>AppModule&#45;&gt;AppComponent </title>
<path fill="none" stroke="black" stroke-dasharray="1,5" d="M829,-149.91C829,-149.91 829,-168.79 829,-168.79"/>
<polygon fill="black" stroke="black" points="825.5,-168.79 829,-178.79 832.5,-168.79 825.5,-168.79"/>
</g>
<!-- AppRoutingModule -->
<g id="node12" class="node">
<title>AppRoutingModule</title>
<polygon fill="#8dd3c7" stroke="black" points="152.28,-84.8 149.28,-88.8 128.28,-88.8 125.28,-84.8 23.72,-84.8 23.72,-48.8 152.28,-48.8 152.28,-84.8"/>
<text text-anchor="middle" x="88" y="-62.6" font-family="Times,serif" font-size="14.00">AppRoutingModule</text>
</g>
<!-- AppRoutingModule&#45;&gt;AppModule -->
<g id="edge11" class="edge">
<title>AppRoutingModule&#45;&gt;AppModule</title>
<path fill="none" stroke="black" d="M88,-85.05C88,-107.82 88,-143.8 88,-143.8 88,-143.8 777.31,-143.8 777.31,-143.8"/>
<polygon fill="black" stroke="black" points="777.31,-147.3 787.31,-143.8 777.31,-140.3 777.31,-147.3"/>
</g>
</g>
</svg>
