<?xml version="1.0" encoding="UTF-8" standalone="no"?>
<!DOCTYPE svg PUBLIC "-//W3C//DTD SVG 1.1//EN"
 "http://www.w3.org/Graphics/SVG/1.1/DTD/svg11.dtd">
<!-- Generated by graphviz version 5.0.0 (20220707.1540)
 -->
<!-- Title: dependencies Pages: 1 -->
<svg width="1641pt" height="247pt"
 viewBox="0.00 0.00 1641.00 246.80" xmlns="http://www.w3.org/2000/svg" xmlns:xlink="http://www.w3.org/1999/xlink">
<g id="graph0" class="graph" transform="scale(1 1) rotate(0) translate(4 242.8)">
<title>dependencies</title>
<polygon fill="white" stroke="transparent" points="-4,4 -4,-242.8 1637,-242.8 1637,4 -4,4"/>
<text text-anchor="middle" x="816.5" y="-8.2" font-family="sans-serif" font-size="14.00">dependencies</text>
<g id="clust1" class="cluster">
<title>cluster_AppModule</title>
<polygon fill="none" stroke="black" stroke-dasharray="1,5" points="8,-32.8 8,-230.8 1625,-230.8 1625,-32.8 8,-32.8"/>
</g>
<g id="clust13" class="cluster">
<title>cluster_AppModule_imports</title>
<polygon fill="none" stroke="black" points="1473,-40.8 1473,-92.8 1617,-92.8 1617,-40.8 1473,-40.8"/>
</g>
<g id="clust15" class="cluster">
<title>cluster_AppModule_bootstrap</title>
<polygon fill="none" stroke="black" points="772,-170.8 772,-222.8 896,-222.8 896,-170.8 772,-170.8"/>
</g>
<g id="clust2" class="cluster">
<title>cluster_AppModule_declarations</title>
<polygon fill="none" stroke="black" points="16,-40.8 16,-92.8 1465,-92.8 1465,-40.8 16,-40.8"/>
</g>
<!-- AppComponent -->
<g id="node1" class="node">
<title>AppComponent</title>
<polygon fill="#ffffb3" stroke="black" points="1456.94,-84.8 1351.06,-84.8 1351.06,-48.8 1456.94,-48.8 1456.94,-84.8"/>
<text text-anchor="middle" x="1404" y="-62.6" font-family="Times,serif" font-size="14.00">AppComponent</text>
</g>
<!-- AppModule -->
<g id="node11" class="node">
<title>AppModule</title>
<polygon fill="#8dd3c7" stroke="black" points="875.66,-149.8 872.66,-153.8 851.66,-153.8 848.66,-149.8 792.34,-149.8 792.34,-113.8 875.66,-113.8 875.66,-149.8"/>
<text text-anchor="middle" x="834" y="-127.6" font-family="Times,serif" font-size="14.00">AppModule</text>
</g>
<!-- AppComponent&#45;&gt;AppModule -->
<g id="edge1" class="edge">
<title>AppComponent&#45;&gt;AppModule</title>
<path fill="none" stroke="black" d="M1404,-85.08C1404,-106.12 1404,-137.8 1404,-137.8 1404,-137.8 885.91,-137.8 885.91,-137.8"/>
<polygon fill="black" stroke="black" points="885.91,-134.3 875.91,-137.8 885.91,-141.3 885.91,-134.3"/>
</g>
<!-- AuthComponent -->
<g id="node2" class="node">
<title>AuthComponent</title>
<polygon fill="#ffffb3" stroke="black" points="1333.83,-84.8 1224.17,-84.8 1224.17,-48.8 1333.83,-48.8 1333.83,-84.8"/>
<text text-anchor="middle" x="1279" y="-62.6" font-family="Times,serif" font-size="14.00">AuthComponent</text>
</g>
<!-- AuthComponent&#45;&gt;AppModule -->
<g id="edge2" class="edge">
<title>AuthComponent&#45;&gt;AppModule</title>
<path fill="none" stroke="black" d="M1279,-84.91C1279,-104.14 1279,-131.8 1279,-131.8 1279,-131.8 885.86,-131.8 885.86,-131.8"/>
<polygon fill="black" stroke="black" points="885.86,-128.3 875.86,-131.8 885.86,-135.3 885.86,-128.3"/>
</g>
<!-- BookFormComponent -->
<g id="node3" class="node">
<title>BookFormComponent</title>
<polygon fill="#ffffb3" stroke="black" points="1206.01,-84.8 1063.99,-84.8 1063.99,-48.8 1206.01,-48.8 1206.01,-84.8"/>
<text text-anchor="middle" x="1135" y="-62.6" font-family="Times,serif" font-size="14.00">BookFormComponent</text>
</g>
<!-- BookFormComponent&#45;&gt;AppModule -->
<g id="edge3" class="edge">
<title>BookFormComponent&#45;&gt;AppModule</title>
<path fill="none" stroke="black" d="M1135,-84.82C1135,-102.17 1135,-125.8 1135,-125.8 1135,-125.8 885.85,-125.8 885.85,-125.8"/>
<polygon fill="black" stroke="black" points="885.85,-122.3 875.85,-125.8 885.85,-129.3 885.85,-122.3"/>
</g>
<!-- BookInfoComponent -->
<g id="node4" class="node">
<title>BookInfoComponent</title>
<polygon fill="#ffffb3" stroke="black" points="1045.49,-84.8 910.51,-84.8 910.51,-48.8 1045.49,-48.8 1045.49,-84.8"/>
<text text-anchor="middle" x="978" y="-62.6" font-family="Times,serif" font-size="14.00">BookInfoComponent</text>
</g>
<!-- BookInfoComponent&#45;&gt;AppModule -->
<g id="edge4" class="edge">
<title>BookInfoComponent&#45;&gt;AppModule</title>
<path fill="none" stroke="black" d="M978,-85.04C978,-100.37 978,-119.8 978,-119.8 978,-119.8 886.04,-119.8 886.04,-119.8"/>
<polygon fill="black" stroke="black" points="886.04,-116.3 876.04,-119.8 886.04,-123.3 886.04,-116.3"/>
</g>
<!-- BooksComponent -->
<g id="node5" class="node">
<title>BooksComponent</title>
<polygon fill="#ffffb3" stroke="black" points="892.62,-84.8 775.38,-84.8 775.38,-48.8 892.62,-48.8 892.62,-84.8"/>
<text text-anchor="middle" x="834" y="-62.6" font-family="Times,serif" font-size="14.00">BooksComponent</text>
</g>
<!-- BooksComponent&#45;&gt;AppModule -->
<g id="edge5" class="edge">
<title>BooksComponent&#45;&gt;AppModule</title>
<path fill="none" stroke="black" d="M834,-84.91C834,-84.91 834,-103.79 834,-103.79"/>
<polygon fill="black" stroke="black" points="830.5,-103.79 834,-113.79 837.5,-103.79 830.5,-103.79"/>
</g>
<!-- EditorialFormComponent -->
<g id="node6" class="node">
<title>EditorialFormComponent</title>
<polygon fill="#ffffb3" stroke="black" points="757.16,-84.8 596.84,-84.8 596.84,-48.8 757.16,-48.8 757.16,-84.8"/>
<text text-anchor="middle" x="677" y="-62.6" font-family="Times,serif" font-size="14.00">EditorialFormComponent</text>
</g>
<!-- EditorialFormComponent&#45;&gt;AppModule -->
<g id="edge6" class="edge">
<title>EditorialFormComponent&#45;&gt;AppModule</title>
<path fill="none" stroke="black" d="M677,-85.04C677,-100.37 677,-119.8 677,-119.8 677,-119.8 781.93,-119.8 781.93,-119.8"/>
<polygon fill="black" stroke="black" points="781.93,-123.3 791.93,-119.8 781.93,-116.3 781.93,-123.3"/>
</g>
<!-- EditorialsComponent -->
<g id="node7" class="node">
<title>EditorialsComponent</title>
<polygon fill="#ffffb3" stroke="black" points="578.77,-84.8 443.23,-84.8 443.23,-48.8 578.77,-48.8 578.77,-84.8"/>
<text text-anchor="middle" x="511" y="-62.6" font-family="Times,serif" font-size="14.00">EditorialsComponent</text>
</g>
<!-- EditorialsComponent&#45;&gt;AppModule -->
<g id="edge7" class="edge">
<title>EditorialsComponent&#45;&gt;AppModule</title>
<path fill="none" stroke="black" d="M511,-84.82C511,-102.17 511,-125.8 511,-125.8 511,-125.8 782.1,-125.8 782.1,-125.8"/>
<polygon fill="black" stroke="black" points="782.1,-129.3 792.1,-125.8 782.1,-122.3 782.1,-129.3"/>
</g>
<!-- NavBarComponent -->
<g id="node8" class="node">
<title>NavBarComponent</title>
<polygon fill="#ffffb3" stroke="black" points="425.37,-84.8 300.63,-84.8 300.63,-48.8 425.37,-48.8 425.37,-84.8"/>
<text text-anchor="middle" x="363" y="-62.6" font-family="Times,serif" font-size="14.00">NavBarComponent</text>
</g>
<!-- NavBarComponent&#45;&gt;AppModule -->
<g id="edge8" class="edge">
<title>NavBarComponent&#45;&gt;AppModule</title>
<path fill="none" stroke="black" d="M363,-84.91C363,-104.14 363,-131.8 363,-131.8 363,-131.8 782.2,-131.8 782.2,-131.8"/>
<polygon fill="black" stroke="black" points="782.2,-135.3 792.2,-131.8 782.2,-128.3 782.2,-135.3"/>
</g>
<!-- StaffComponent -->
<g id="node9" class="node">
<title>StaffComponent</title>
<polygon fill="#ffffb3" stroke="black" points="282.05,-84.8 173.95,-84.8 173.95,-48.8 282.05,-48.8 282.05,-84.8"/>
<text text-anchor="middle" x="228" y="-62.6" font-family="Times,serif" font-size="14.00">StaffComponent</text>
</g>
<!-- StaffComponent&#45;&gt;AppModule -->
<g id="edge9" class="edge">
<title>StaffComponent&#45;&gt;AppModule</title>
<path fill="none" stroke="black" d="M228,-85.08C228,-106.12 228,-137.8 228,-137.8 228,-137.8 781.87,-137.8 781.87,-137.8"/>
<polygon fill="black" stroke="black" points="781.87,-141.3 791.87,-137.8 781.87,-134.3 781.87,-141.3"/>
</g>
<!-- StaffInfoComponent -->
<g id="node10" class="node">
<title>StaffInfoComponent</title>
<polygon fill="#ffffb3" stroke="black" points="155.87,-84.8 24.13,-84.8 24.13,-48.8 155.87,-48.8 155.87,-84.8"/>
<text text-anchor="middle" x="90" y="-62.6" font-family="Times,serif" font-size="14.00">StaffInfoComponent</text>
</g>
<!-- StaffInfoComponent&#45;&gt;AppModule -->
<g id="edge10" class="edge">
<title>StaffInfoComponent&#45;&gt;AppModule</title>
<path fill="none" stroke="black" d="M90,-85.05C90,-107.82 90,-143.8 90,-143.8 90,-143.8 782.14,-143.8 782.14,-143.8"/>
<polygon fill="black" stroke="black" points="782.14,-147.3 792.14,-143.8 782.14,-140.3 782.14,-147.3"/>
</g>
<!-- AppComponent  -->
<g id="node13" class="node">
<title>AppComponent </title>
<polygon fill="#80b1d3" stroke="black" points="888.44,-214.8 779.56,-214.8 779.56,-178.8 888.44,-178.8 888.44,-214.8"/>
<text text-anchor="middle" x="834" y="-192.6" font-family="Times,serif" font-size="14.00">AppComponent </text>
</g>
<!-- AppModule&#45;&gt;AppComponent  -->
<g id="edge12" class="edge">
<title>AppModule&#45;&gt;AppComponent </title>
<path fill="none" stroke="black" stroke-dasharray="1,5" d="M834,-149.91C834,-149.91 834,-168.79 834,-168.79"/>
<polygon fill="black" stroke="black" points="830.5,-168.79 834,-178.79 837.5,-168.79 830.5,-168.79"/>
</g>
<!-- AppRoutingModule -->
<g id="node12" class="node">
<title>AppRoutingModule</title>
<polygon fill="#8dd3c7" stroke="black" points="1609.28,-84.8 1606.28,-88.8 1585.28,-88.8 1582.28,-84.8 1480.72,-84.8 1480.72,-48.8 1609.28,-48.8 1609.28,-84.8"/>
<text text-anchor="middle" x="1545" y="-62.6" font-family="Times,serif" font-size="14.00">AppRoutingModule</text>
</g>
<!-- AppRoutingModule&#45;&gt;AppModule -->
<g id="edge11" class="edge">
<title>AppRoutingModule&#45;&gt;AppModule</title>
<path fill="none" stroke="black" d="M1545,-85.05C1545,-107.82 1545,-143.8 1545,-143.8 1545,-143.8 885.82,-143.8 885.82,-143.8"/>
<polygon fill="black" stroke="black" points="885.82,-140.3 875.82,-143.8 885.82,-147.3 885.82,-140.3"/>
</g>
</g>
</svg>
